
        <svg xmlns="http://www.w3.org/2000/svg" xmlns:xlink="http://www.w3.org/1999/xlink" version="1.1" width="200" 
        height="70" viewBox="0 0 3182.370820668693 1179.7112462006078">
			
			<g transform="scale(9.118541033434651) translate(10, 10)">
				<defs id="SvgjsDefs10357"><linearGradient id="SvgjsLinearGradient10364"><stop id="SvgjsStop10365" stop-color="#8f5e25" offset="0"></stop><stop id="SvgjsStop10366" stop-color="#fbf4a1" offset="0.5"></stop><stop id="SvgjsStop10367" stop-color="#8f5e25" offset="1"></stop></linearGradient><linearGradient id="SvgjsLinearGradient10368"><stop id="SvgjsStop10369" stop-color="#006838" offset="0"></stop><stop id="SvgjsStop10370" stop-color="#96cf24" offset="1"></stop></linearGradient><linearGradient id="SvgjsLinearGradient10371"><stop id="SvgjsStop10372" stop-color="#945f50" offset="0"></stop><stop id="SvgjsStop10373" stop-color="#fcc5b3" offset="0.5"></stop><stop id="SvgjsStop10374" stop-color="#945f50" offset="1"></stop></linearGradient></defs><g id="SvgjsG10358" featureKey="symbolGroupContainer" transform="matrix(0.5454894687352649,0,0,0.5454894687352649,0,0)" fill="url(#SvgjsLinearGradient10364)"><path xmlns="http://www.w3.org/2000/svg" d="M100.254 0C44.974 0 0 44.974 0 100.254s44.974 100.254 100.254 100.254c55.28 0 100.254-44.974 100.254-100.254S155.534 0 100.254 0zm0 195.508C47.731 195.508 5 152.777 5 100.254S47.731 5 100.254 5s95.254 42.73 95.254 95.254-42.731 95.254-95.254 95.254z"></path></g><g id="SvgjsG10359" featureKey="symbolFeature-0" transform="matrix(8.286965292669725,0,0,8.286965292669725,19.99999604846702,21)" fill="url(#SvgjsLinearGradient10368)"><defs xmlns="http://www.w3.org/2000/svg"></defs><g xmlns="http://www.w3.org/2000/svg"><path class="fil0" d="M3.6814 3.9787c-2.7943,-2.0689 -0.6017,-2.1466 -0.217,-3.9787 1.5218,0.9545 1.5183,2.4274 0.5261,3.7817 -0.0216,-2.313 -0.0404,-1.0659 -0.3091,0.197zm0.3945 -0.4655c1.3316,-1.9427 -0.2422,-3.1586 -0.5532,-3.3721 -0.3524,1.3668 -2.3737,1.8212 0.1015,3.6861 0.2628,-1.2323 0.4342,-2.8969 0.4517,-0.314zm-2.4369 3.1455c-0.2364,-0.7218 0.0375,-1.1539 0.7713,-1.2732 -0.1469,0.1837 -0.6724,0.6955 -0.2171,0.1299 -0.6507,0.1749 -0.5539,0.8028 -0.5063,0.9991 0.4796,-0.3429 0.8097,-0.1251 0.7625,-0.955 -1.0744,0.8025 -0.427,0.2114 0.0721,-0.163 0.119,1.0705 -0.2476,0.7869 -0.8825,1.2622zm-0.9357 -4.1988c0.678,-0.4697 1.2241,-0.3305 1.5827,0.4009 -0.2309,-0.0946 -0.8994,-0.444 -0.1858,-0.1687 -0.4005,-0.6641 -1.0565,-0.3408 -1.2448,-0.2285 0.5278,0.4033 0.3993,0.8304 1.2775,0.5037 -1.0696,-0.7875 -0.3549,-0.3716 0.176,0.0214 -1.0659,0.4642 -0.9145,-0.0221 -1.6056,-0.5288zm4.2532 2.91c0.0875,1.3029 0.5581,0.8938 1.3669,1.3263 0.032,-0.2694 0.0874,-1.3403 -1.0367,-1.4347 0.7532,0.7222 0.065,0.1779 -0.2302,-0.0962 1.0552,0.0237 1.5104,0.6342 1.3341,1.6675 -0.9906,-0.5474 -1.4813,-0.0821 -1.5275,-1.6132 0.8153,0.439 1.5093,0.928 0.0934,0.1503zm1.1364 -5.0412c0.4091,0.9503 0.1131,1.6631 -0.9115,1.9311 0.2287,-0.3428 0.7196,-0.9484 0.202,-0.147 1.0717,-0.3524 0.7693,-1.3817 0.676,-1.6357 -0.6905,0.6111 -1.2362,0.3361 -1.0226,1.6067 1.222,-1.1073 0.634,-0.4579 -0.0556,0.1685 -0.3164,-1.4909 0.2343,-1.1241 1.1117,-1.9236zm-2.3672 3.9252c-1.6994,1.1484 -0.5466,2.19 -0.3248,3.672 0.327,-0.1967 1.9658,-1.3144 0.756,-3.332 -0.1832,2.5362 -0.2451,0.8996 -0.4312,-0.34zm0.0663 -0.1481c0.2104,1.4202 0.1389,2.5976 0.2958,0.2147 0.9067,1.4107 0.8237,2.8857 -0.7549,3.7435 -0.2474,-1.6803 -1.4661,-2.7052 0.4591,-3.9582zm-3.792 0.7725c0.6293,-1.4318 1.7815,-1.8905 3.1366,-1.0366 -1.9776,0.3299 -0.9276,0.181 0.2341,0.279 -1.3402,1.9359 -1.5965,0.9009 -3.3707,0.7576zm3.211 -0.6831c-1.0851,-0.0899 -2.4499,-0.0269 -0.3178,-0.4009 -1.6955,-0.9836 -2.6026,0.6757 -2.7626,1.0069 1.4913,0.1317 1.8092,1.1046 3.0804,-0.606zm1.1596 0.0622c1.5992,1.9496 3.0123,-1.0722 3.8573,-1.7962 -1.8241,-0.1643 -2.5085,-0.6451 -3.7389,1.2302 2.2822,-1.0835 0.842,-0.1914 -0.1184,0.566zm-0.1223 -0.0147c1.171,-0.9325 2.0919,-1.3613 0.0008,-0.3382 1.4148,-2.2342 1.9023,-1.6974 4.1979,-1.513 -1.0589,0.8816 -2.5493,4.0057 -4.1987,1.8512z" style="fill: url(#SvgjsLinearGradient10368); fill-rule: nonzero;"></path></g></g><g id="SvgjsG10360" featureKey="nameFeature-0" transform="matrix(0.8830177930726165,0,0,0.8830177930726165,126.35094662078215,31.756993263513092)" fill="url(#SvgjsLinearGradient10371)"><path d="M5 40.2 c-1.16 0 -2 -0.84 -2 -2 c0 -1.08 0.84 -1.96 2 -1.96 c1.08 0 1.96 0.88 1.96 1.96 c0 1.16 -0.88 2 -1.96 2 z M37.252 40 l-2.72 -6.32 l-13.56 0 l-2.72 6.32 l-3 0 l12.32 -28.4 l0.36 0 l12.32 28.4 l-3 0 z M22.092000000000002 31.08 l11.32 0 l-5.68 -13.16 z M51.904 37.36 l12.36 0 l-0.2 2.64 l-14.96 0 l0 -28 l2.8 0 l0 25.36 z M90.27600000000001 37.36 l0.2 2.64 l-16.96 0 l0 -28 l16.16 0 l0.2 2.64 l-13.56 0 l0 7.84 l9.48 0 l0 2.64 l-9.48 0 l0 12.24 l13.96 0 z M98.12800000000001 12 l3.04 0 l9.36 22.28 l9.36 -22.28 l3.08 0 l-12.24 28.4 l-0.4 0 z M149.5 14.64 l-8.48 0 l0 25.36 l-2.8 0 l0 -25.36 l-8.52 0 l0.2 -2.64 l19.4 0 z M158.672 40 l0 -28 l2.8 0 l0 28 l-2.8 0 z M192.844 12 l2.76 0 l0 28.4 l-0.36 0 l-19.36 -21.8 l0 21.4 l-2.76 0 l0 -28.4 l0.36 0 l19.36 21.8 l0 -21.4 z M226.496 40 l-2.72 -6.32 l-13.56 0 l-2.72 6.32 l-3 0 l12.32 -28.4 l0.36 0 l12.32 28.4 l-3 0 z M211.33599999999998 31.08 l11.32 0 l-5.68 -13.16 z"></path></g>
			</g>
		</svg>
	